<svg version="1.1" id="Layer_1" xmlns="http://www.w3.org/2000/svg" xmlns:xlink="http://www.w3.org/1999/xlink" x="0px" y="0px"
	 width="100%" viewBox="0 0 500 500" enable-background="new 0 0 500 500" xml:space="preserve">
<path fill="#FFFFFF" opacity="1.000000" stroke="none" 
	d="
M228.000000,501.000000 
	C153.333344,501.000000 79.166649,500.969788 5.000217,501.096283 
	C1.575857,501.102142 0.903036,500.423798 0.905301,497.000000 
	C1.013779,333.000092 1.013772,169.000122 0.905333,5.000235 
	C0.903070,1.576908 1.575830,0.903023 4.999888,0.905288 
	C168.999771,1.013774 332.999725,1.013761 496.999634,0.905352 
	C500.422668,0.903090 501.096985,1.575450 501.094727,4.999769 
	C500.986206,168.999649 500.986237,332.999634 501.094604,496.999542 
	C501.096893,500.422333 500.425354,501.100464 497.000305,501.095856 
	C407.500305,500.974884 318.000153,501.000000 228.000000,501.000000 
z"/>
<path fill="#39B6FF" opacity="1.000000" stroke="none" 
	d="
M190.861572,230.989792 
	C189.289642,251.693283 190.209656,271.746124 195.964310,291.322754 
	C203.615845,317.352295 221.546951,331.314911 248.644119,333.313965 
	C257.062927,333.935028 265.295837,333.314301 273.441986,331.647980 
	C295.116302,327.214447 307.021698,312.553253 307.965912,289.517517 
	C308.122803,285.690277 307.838623,281.837067 308.139343,278.025909 
	C308.422943,274.432312 307.000854,273.564728 303.595367,273.595062 
	C286.599701,273.746338 269.600616,273.550995 252.605972,273.750916 
	C248.825531,273.795380 247.804474,272.707764 247.891174,268.973755 
	C248.142563,258.148163 248.114700,247.310318 247.900909,236.483124 
	C247.834366,233.113922 248.937027,232.268951 252.147919,232.277954 
	C285.975037,232.372742 319.802673,232.382858 353.629639,232.266373 
	C357.094727,232.254456 358.139191,233.215302 358.130280,236.735275 
	C358.018616,280.727264 358.013153,324.719757 358.138275,368.711639 
	C358.148560,372.328033 357.007416,373.125488 353.609375,373.077728 
	C340.447662,372.892731 327.280243,372.895172 314.118439,373.077057 
	C310.785980,373.123108 309.889099,372.069458 309.964142,368.844116 
	C310.165680,360.183685 310.076141,351.515015 309.989044,342.850739 
	C309.974670,341.420319 310.926453,339.346130 308.268738,338.914001 
	C306.269226,338.588867 305.679291,340.005737 305.033752,341.358856 
	C290.805847,371.183716 260.918610,378.675598 232.798004,376.394135 
	C215.762161,375.011963 199.740952,370.807526 185.350876,361.212830 
	C166.970474,348.957520 154.881760,331.726837 148.302505,311.141083 
	C134.650116,268.424377 133.172394,225.189972 149.211761,182.853363 
	C163.669022,144.692871 192.868958,123.447830 232.836380,117.043335 
	C259.244049,112.811684 285.329376,114.390457 310.491150,124.128922 
	C330.576447,131.902618 345.784637,145.151718 354.788055,165.076538 
	C356.157196,168.106522 355.692535,169.585464 352.729614,171.297318 
	C342.640717,177.126297 332.768066,183.328781 322.790405,189.351440 
	C317.555817,192.511108 315.851746,192.046402 312.965759,186.806641 
	C304.523499,171.479034 291.600525,162.649445 274.362061,159.840073 
	C261.215790,157.697586 248.161636,157.501373 235.301605,161.320053 
	C213.483978,167.798599 200.878220,183.009308 195.045883,204.451752 
	C192.724625,212.985809 191.267410,221.670151 190.861572,230.989792 
z"/>
</svg>